<svg xmlns="http://www.w3.org/2000/svg" width="240" height="95" viewBox="0 0 240 95" fill="none">
  <path d="M179.294 12.2058H172.235H170.824H169.412H158.118V40.4411V40.7235V43.2788V43.5611V51.7211L158.4 51.7493L169.412 52.8505L170.824 52.9917L172.235 53.1329L183.501 54.2623L179.294 12.2058Z" fill="#59B86E"/>
  <path d="M172.235 55.9705L170.824 55.8293L169.412 55.6881L166.489 55.3917L158.118 54.5587V82.794H197.633L197.661 82.5117L197.845 80.6058L199.454 64.5964L199.595 63.1846L199.736 61.7728L200.033 58.7517L172.235 55.9705Z" fill="#FF9898"/>
  <path d="M221.393 12.2058H219.981H218.57H207.53L202.574 61.7729L202.433 63.1846L202.292 64.5964L200.471 82.794H228.706V12.2058H221.393Z" fill="#7AACF7"/>
  <path d="M21.5012 37.2363L16.9412 82.794H45.1765V39.6081L21.5012 37.2363Z" fill="#7AACF7"/>
  <path d="M48 39.8905V82.794H76.2353L72.1835 42.3046L48 39.8905Z" fill="#59B86E"/>
  <path d="M133.864 41.1329L132.452 40.9917L131.252 40.8788L131.04 43.0529L127.059 82.7941H131.04H132.452H133.864H155.294V54.5588V54.2764V51.7211V51.4388V43.2788L133.864 41.1329Z" fill="#59B86E"/>
  <path d="M84.7059 12.2058V30.4035V31.8152V33.227V33.3823L131.04 38.0129L132.452 38.154L133.864 38.2952L155.294 40.4411V12.2058H84.7059Z" fill="#FFE381"/>
  <path d="M72.0141 12.2058H70.6023H69.1764H47.9999H46.5882H45.1764H23.9999H22.5741H21.1623H11.2941V30.4035V31.8152V33.227V33.3823L18.9741 34.1446L20.3717 34.2858L21.7835 34.427L45.1764 36.7705L46.5882 36.9117L47.9999 37.0529L71.9011 39.4388L73.3411 39.5799L74.767 39.7352L81.8823 40.4411V35.9376V33.3823V33.227V31.8152V30.4035V12.2058H72.0141Z" fill="#FF9898"/>
</svg>